# xmcd
#
# Track frame offsets: 
#        150
#        11703
#        24104
#        36156
#        45691
#        55487
#        67533
#        79872
#        91135
#        102044
#        112148
#        121869
#        133023
#        142256
#        151751
#        162050
#        172639
#        183222
#        193319
#        201842
#
# Disc length: 2835 seconds
#
# Revision: 2
# Processed by: cddbd v1.5.2PL0 Copyright (c) Steve Scherf et al.
# Submitted via: ExactAudioCopy v1.1
#
DISCID=fe0b1114
DTITLE=Various Artist - Rhythm and Blues Goes Rock 'n' Roll - CD07
DYEAR=2002
DGENRE=Blues
TTITLE0=The Bees - Tough Enough (mono)
TTITLE1=Rufus Thomas - Easy Livin' Plan (mono)
TTITLE2=Wally Mercer - Rock Around (mono)
TTITLE3=Charlie Jester and The Team Mates - Crazy Baby (mono)
TTITLE4=Jackie Brenston - Trouble Up The Road (mono)
TTITLE5=The Blues Rockers - Calling All Cows (mono)
TTITLE6=Kip Anderson - I Wanna Be The Only One (mono)
TTITLE7=Buddy Rogers - Mad At You (mono)
TTITLE8=Bobby Bland - You Got Me (mono)
TTITLE9=Johnnie Cook - Try Your Love (mono)
TTITLE10=Sherman Evans - I Don't Care (mono)
TTITLE11=Otis Blackwell - You Move Me (mono)
TTITLE12=Finney Mo - Shake That Thing (mono)
TTITLE13=Doc Palmer - Bye Baby Bye (mono)
TTITLE14=Jackie Dunham - All Around The World (mono)
TTITLE15=K.C. Mojo Watson - Blood Hound (mono)
TTITLE16=The Pork Chops - Everything Is Cool (mono)
TTITLE17=Tender Slim - Don't Cut Out On Me (mono)
TTITLE18=The Premiers - Run Along Baby (mono)
TTITLE19=Buster Brown - Sugar Babe (mono)
EXTD=
EXTT0=
EXTT1=
EXTT2=
EXTT3=
EXTT4=
EXTT5=
EXTT6=
EXTT7=
EXTT8=
EXTT9=
EXTT10=
EXTT11=
EXTT12=
EXTT13=
EXTT14=
EXTT15=
EXTT16=
EXTT17=
EXTT18=
EXTT19=
PLAYORDER=
